<?xml version="1.0" encoding="UTF-8"?>
<svg id="Layer_1" data-name="Layer 1" xmlns="http://www.w3.org/2000/svg" viewBox="0 0 76 20">
  <defs>
    <style>
      .cls-1 {
        fill: #f2ebc4;
      }
    </style>
  </defs>
  <rect class="cls-1" width="76" height="20"/>
  <g>
    <path d="M9.87,4.95h1.86l3.07,5.31h.11l3.07-5.31h1.88V14.98h-1.88v-4.94l.11-1.68h-.11l-2.55,4.49h-1.13l-2.56-4.49h-.11l.11,1.68v4.94h-1.86V4.95Z"/>
    <path d="M26.48,15.2c-.75,0-1.44-.13-2.08-.41s-1.19-.64-1.66-1.11-.83-1.03-1.1-1.67-.4-1.32-.4-2.05,.13-1.41,.4-2.05c.27-.64,.63-1.19,1.1-1.67,.47-.47,1.02-.84,1.66-1.11,.64-.27,1.33-.41,2.08-.41s1.44,.13,2.08,.41c.64,.27,1.19,.64,1.66,1.11,.47,.47,.83,1.03,1.1,1.67,.27,.64,.4,1.32,.4,2.05s-.13,1.41-.4,2.05c-.27,.64-.63,1.19-1.1,1.67s-1.02,.84-1.66,1.11-1.33,.41-2.08,.41Zm0-1.79c.47,0,.9-.08,1.31-.25,.41-.17,.76-.4,1.06-.7s.54-.66,.71-1.09c.17-.42,.26-.89,.26-1.41s-.09-.98-.26-1.41-.41-.79-.71-1.08-.66-.53-1.06-.7c-.41-.17-.84-.25-1.31-.25s-.9,.08-1.31,.25c-.41,.17-.76,.4-1.06,.7s-.54,.66-.71,1.08-.26,.89-.26,1.41,.09,.98,.26,1.41c.17,.42,.41,.79,.71,1.09s.66,.53,1.06,.7c.41,.17,.84,.25,1.31,.25Z"/>
    <path d="M33.24,4.95h3.39c.79,0,1.51,.12,2.14,.36s1.18,.59,1.62,1.03,.79,.97,1.03,1.59c.24,.62,.36,1.29,.36,2.03s-.12,1.43-.36,2.04c-.24,.62-.58,1.14-1.03,1.58s-.99,.78-1.62,1.02c-.63,.24-1.35,.36-2.14,.36h-3.39V4.95Zm3.3,8.23c.55,0,1.04-.08,1.46-.23,.42-.15,.77-.37,1.05-.65,.28-.28,.49-.62,.63-1.02,.14-.4,.21-.84,.21-1.32s-.07-.93-.21-1.32c-.14-.4-.35-.74-.63-1.02-.28-.28-.63-.5-1.05-.65-.42-.15-.91-.23-1.46-.23h-1.41v6.44h1.41Z"/>
    <path d="M45.2,6.75v2.32h4.02v1.79h-4.02v2.32h4.47v1.79h-6.36V4.95h6.36v1.79h-4.47Z"/>
    <path d="M54.46,15.2c-.43,0-.84-.06-1.23-.18-.39-.12-.75-.3-1.08-.55-.33-.24-.61-.54-.85-.89-.24-.35-.43-.76-.57-1.23l1.78-.7c.13,.5,.36,.92,.69,1.25,.33,.33,.76,.5,1.29,.5,.2,0,.38-.03,.57-.08,.18-.05,.34-.13,.49-.22,.15-.1,.26-.22,.34-.37s.13-.32,.13-.52-.03-.35-.1-.5-.17-.29-.33-.42c-.15-.13-.35-.26-.6-.38-.25-.12-.55-.25-.92-.38l-.62-.22c-.27-.09-.54-.22-.82-.38-.28-.16-.53-.35-.75-.57-.22-.22-.41-.49-.55-.79-.14-.3-.22-.65-.22-1.03s.08-.76,.23-1.1c.15-.34,.37-.64,.66-.9,.29-.26,.63-.46,1.02-.6s.84-.22,1.32-.22,.94,.07,1.31,.2c.37,.13,.68,.31,.94,.52,.26,.21,.46,.44,.62,.69,.16,.25,.27,.49,.35,.71l-1.67,.7c-.09-.28-.26-.53-.51-.76-.25-.22-.59-.34-1.02-.34s-.75,.1-1.02,.29c-.27,.19-.41,.44-.41,.75s.13,.55,.39,.76c.26,.21,.68,.41,1.25,.61l.63,.21c.4,.14,.77,.3,1.1,.48s.62,.4,.85,.65c.24,.25,.42,.54,.55,.86,.13,.32,.19,.69,.19,1.11,0,.52-.1,.97-.31,1.35-.21,.38-.48,.69-.81,.93-.33,.24-.7,.42-1.11,.55-.41,.12-.81,.18-1.2,.18Z"/>
    <path d="M61.44,14.98V6.75h-2.8v-1.79h7.49v1.79h-2.8V14.98h-1.89Z"/>
  </g>
</svg>